# Blender 5.0.1
# www.blender.org
mtllib build4.mtl
o Object_40
v -0.235741 0.001360 5.782179
v -0.235741 0.001360 5.782179
v -0.235741 0.001360 5.782179
v -0.235741 3.717198 5.782179
v -0.235741 3.717198 5.782179
v -0.235741 3.717198 5.782179
v -0.235741 0.001360 4.974580
v -0.235741 0.001360 4.974580
v -0.235741 0.001360 4.974580
v -0.235741 3.717198 4.974580
v -0.235741 3.717198 4.974580
v -0.235741 3.717198 4.974580
v 0.235741 0.001360 5.782179
v 0.235741 0.001360 5.782179
v 0.235741 0.001360 5.782179
v 0.235741 3.717198 5.782179
v 0.235741 3.717198 5.782179
v 0.235741 3.717198 5.782179
v 0.235741 0.001360 4.974580
v 0.235741 0.001360 4.974580
v 0.235741 0.001360 4.974580
v 0.235741 3.717198 4.974580
v 0.235741 3.717198 4.974580
v 0.235741 3.717198 4.974580
vn -1.0000 -0.0000 -0.0000
vn -0.0000 -0.0000 -1.0000
vn 1.0000 -0.0000 -0.0000
vn -0.0000 -0.0000 1.0000
vn -0.0000 -1.0000 -0.0000
vn -0.0000 1.0000 -0.0000
vt 0.981295 1.002674
vt 1.001745 0.001514
vt 0.011785 0.001514
vt -0.008665 1.002674
vt 0.125000 0.500000
vt 0.375000 0.500000
vt 0.375000 0.250000
vt 0.125000 0.250000
vt 0.089593 0.010040
vt 0.089593 0.059325
vt 0.933756 0.059325
vt 0.933756 0.010040
s 0
usemtl Material.003
f 1/1/1 4/2/1 10/3/1
f 1/1/1 10/3/1 7/4/1
f 9/1/2 11/2/2 22/3/2
f 9/1/2 22/3/2 20/4/2
f 21/1/3 24/2/3 18/3/3
f 21/1/3 18/3/3 15/4/3
f 14/1/4 16/2/4 5/3/4
f 14/1/4 5/3/4 3/4/4
f 8/5/5 19/6/5 13/7/5
f 8/5/5 13/7/5 2/8/5
f 23/9/6 12/10/6 6/11/6
f 23/9/6 6/11/6 17/12/6
