# Blender 5.0.1
# www.blender.org
mtllib build1.mtl
o Object_18
v 0.040430 -0.008941 2.732748
v 0.040430 -0.008941 2.732748
v 0.040430 -0.008941 2.732748
v 0.040430 3.580059 2.732748
v 0.040430 3.580059 2.732748
v 0.040430 3.580059 2.732748
v 0.040430 3.580059 2.732748
v 0.040430 3.580059 2.732748
v -0.531425 -0.008941 2.732748
v -0.531425 -0.008941 2.732748
v -0.531425 -0.008941 2.732748
v -0.531425 3.585061 2.732748
v -0.531425 3.585061 2.732748
v -0.531425 3.585061 2.732748
v -0.531425 3.585061 2.732748
v -0.531425 3.585061 2.732748
v 0.040430 -0.008941 2.160893
v 0.040430 -0.008941 2.160893
v 0.040430 -0.008941 2.160893
v 0.040430 3.580059 2.160893
v 0.040430 3.580059 2.160893
v 0.040430 3.580059 2.160893
v 0.040430 3.580059 2.160893
v 0.040430 3.580059 2.160893
v -0.531425 -0.008941 2.160893
v -0.531425 -0.008941 2.160893
v -0.531425 -0.008941 2.160893
v -0.531425 3.585061 2.160893
v -0.531425 3.585061 2.160893
v -0.531425 3.585061 2.160893
v -0.531425 3.585061 2.160893
v -0.531425 3.585061 2.160893
v 0.032192 4.150165 2.745112
v 0.032192 4.150165 2.745112
v 0.032192 4.150165 2.745112
v 0.032191 4.150165 2.173257
v 0.032191 4.150165 2.173257
v 0.032191 4.150165 2.173257
vn -0.0002 -0.0217 0.9998
vn 0.0002 0.0217 -0.9998
vn -0.0000 -0.0000 1.0000
vn -1.0000 -0.0000 -0.0000
vn -0.0000 -0.0000 -1.0000
vn 1.0000 -0.0000 -0.0000
vn -0.0000 -1.0000 -0.0000
vn 0.0087 1.0000 -0.0000
vn -0.9999 -0.0144 -0.0000
vn 0.7080 -0.7062 -0.0000
vt 0.616230 0.361316
vt 0.874454 0.357808
vt 0.619355 0.026514
vt 0.625915 0.097125
vt 0.625991 0.491667
vt 0.893868 0.496744
vt 0.873826 1.000082
vt 0.866082 0.042442
vt 0.577229 0.017894
vt 0.573357 1.000082
vt 0.125000 0.500000
vt 0.375000 0.500000
vt 0.375000 0.250000
vt 0.125000 0.250000
vt 0.331333 0.027287
vt 0.026520 0.575835
vt 0.427666 0.574070
vt 0.625000 0.250000
vt 0.885838 0.046916
vt 0.614287 0.025659
vt 0.608379 0.176737
vt 0.876978 0.195321
vt 0.549977 0.973185
vt 0.553053 0.590067
vt 0.007599 0.590067
vt 0.004523 0.973185
s 0
usemtl Material.006
f 36/1/1 28/2/1 20/3/1
f 35/4/2 8/5/2 16/6/2
f 1/7/3 4/8/3 12/9/3
f 1/7/3 12/9/3 9/10/3
f 11/7/4 14/8/4 30/9/4
f 11/7/4 30/9/4 26/10/4
f 27/7/5 32/8/5 24/9/5
f 27/7/5 24/9/5 19/10/5
f 18/7/6 22/8/6 6/9/6
f 18/7/6 6/9/6 3/10/6
f 10/11/7 25/12/7 17/13/7
f 10/11/7 17/13/7 2/14/7
f 31/15/8 15/16/8 7/17/8
f 31/15/8 7/17/8 23/18/8
f 21/19/9 5/20/9 34/21/9
f 21/19/9 34/21/9 38/22/9
f 33/23/10 13/24/10 29/25/10
f 33/23/10 29/25/10 37/26/10
